<svg xmlns="http://www.w3.org/2000/svg" width="21.125" height="20.663" viewBox="0 0 21.125 20.663"><defs><style>.a{fill:#151717;}</style></defs><g transform="translate(-64 -64)"><path class="a" d="M178.892,134.649a.738.738,0,0,0-.886-.552l-3.848.891a.738.738,0,0,0-.365,1.232l.84.869-4.487,4-2.33-2.207a.738.738,0,0,0-1.041.027l-5,5.241a1.476,1.476,0,1,0,1.174,1.445,1.448,1.448,0,0,0-.079-.455l4.463-4.68,2.288,2.167a.738.738,0,0,0,1,.015l5.037-4.493.957.991a.738.738,0,0,0,1.243-.321l1.025-3.815a.734.734,0,0,0,.007-.358Z" transform="translate(-93.786 -68.462)"/><path class="a" d="M83.925,72.912a.738.738,0,0,0-.738.738V79.5a.738.738,0,0,1-.738.738H66.214a.738.738,0,0,1-.738-.738V66.214a.738.738,0,0,1,.738-.738H78.452a.738.738,0,0,0,0-1.476H66.214A2.214,2.214,0,0,0,64,66.214V79.5a2.214,2.214,0,0,0,2.214,2.214H82.449A2.214,2.214,0,0,0,84.663,79.5V73.65A.738.738,0,0,0,83.925,72.912Zm-.369,10.275H65.107a.738.738,0,0,0,0,1.476H83.556a.738.738,0,0,0,0-1.476Z"/></g></svg>