<svg xmlns="http://www.w3.org/2000/svg" width="39.345" height="39.345" viewBox="0 0 39.345 39.345"><defs><style>.a{fill:#00cdc4;}.b{fill:#3bf3c3;}</style></defs><g transform="translate(-686.323 -107.577)"><path class="a" d="M962,463.786a2.177,2.177,0,1,0,2.177-2.177A2.177,2.177,0,0,0,962,463.786Zm0,0" transform="translate(-260.358 -334.36)"/><path class="a" d="M725.529,138.291a25.281,25.281,0,0,0-3.308-8.575,1.556,1.556,0,1,0-2.693,1.559c3.056,5.277,3.883,9.834,2.108,11.61-1.061,1.061-3.158,1.211-5.9.424a30.669,30.669,0,0,1-8.717-4.466,70.844,70.844,0,0,0,5.563-5.016,68.946,68.946,0,0,0,6.3-7.2,37.3,37.3,0,0,0,5.551-9.723,11.737,11.737,0,0,0,.744-4.068,4.561,4.561,0,0,0-4.756-4.757,11.736,11.736,0,0,0-4.069.744,37.3,37.3,0,0,0-9.723,5.551,68.912,68.912,0,0,0-7.2,6.3,70.826,70.826,0,0,0-5.017,5.563,30.679,30.679,0,0,1-4.466-8.717c-.787-2.747-.637-4.844.424-5.9,1.084-1.084,3.005-1.016,4.426-.769a23.968,23.968,0,0,1,7.967,3.343,1.556,1.556,0,1,0,1.624-2.654,27.028,27.028,0,0,0-9.058-3.755c-3.89-.678-6.041.514-7.16,1.634-1.342,1.342-2.642,3.985-1.215,8.962a34.349,34.349,0,0,0,5.481,10.443,35.55,35.55,0,0,0-4.854,8.779,11.743,11.743,0,0,0-.744,4.069,4.561,4.561,0,0,0,4.757,4.757q.1,0,.206,0a12.073,12.073,0,0,0,3.863-.746,35.527,35.527,0,0,0,8.778-4.854,34.351,34.351,0,0,0,10.443,5.481,14.467,14.467,0,0,0,3.969.621,6.749,6.749,0,0,0,4.993-1.836C724.909,144.013,726.075,141.963,725.529,138.291Zm-30.891,4.441c-2.064.712-3.664.769-4.279.153s-.558-2.215.153-4.279a30.943,30.943,0,0,1,3.913-7.236l.044.053q.185.221.373.442l.012.014q.183.214.369.428l.1.119.329.372.065.072q.194.217.392.433l.1.106.323.349.1.1q.2.214.4.427l.073.076c.115.12.23.239.346.357l.112.115q.415.425.841.84l.117.114q.176.171.352.341l.081.078q.211.2.424.4l.108.1.344.318.11.1q.215.2.431.389l.076.068c.123.109.246.218.369.326l.121.105q.213.185.426.368l.015.013q.221.188.442.373l.052.044A30.9,30.9,0,0,1,694.639,142.732Zm9.78-5.851-.1-.085-.2-.167-.115-.1-.2-.163-.112-.094-.217-.183-.087-.074-.3-.258-.067-.058-.236-.206-.106-.094-.2-.175-.112-.1-.2-.178-.1-.094-.24-.22-.058-.053-.3-.275-.083-.078-.213-.2-.106-.1-.193-.186-.107-.1-.2-.2-.093-.091-.29-.288-.288-.29-.091-.092-.2-.2-.1-.107-.185-.193-.1-.106-.2-.211-.08-.085q-.138-.147-.274-.294l-.057-.062-.216-.235-.1-.106-.175-.194-.1-.115-.172-.193-.1-.11-.2-.227-.065-.074q-.13-.149-.257-.3l-.077-.091-.181-.213-.1-.115-.161-.194-.1-.117-.165-.2-.085-.1-.027-.033a66.811,66.811,0,0,1,5.281-5.927,65.8,65.8,0,0,1,6.874-6.012,34.257,34.257,0,0,1,8.864-5.094c2.064-.711,3.663-.769,4.279-.153s.558,2.215-.153,4.279a34.243,34.243,0,0,1-5.094,8.864,65.8,65.8,0,0,1-6.011,6.874,66.908,66.908,0,0,1-5.926,5.281Z" transform="translate(0 0)"/><path class="a" d="M835.971,740.24" transform="translate(-141.332 -597.508)"/><path class="b" d="M725.53,138.292a25.272,25.272,0,0,0-3.308-8.575,1.556,1.556,0,0,0-2.693,1.559c3.056,5.277,3.884,9.835,2.108,11.61-1.061,1.061-3.157,1.211-5.9.424A24.423,24.423,0,0,1,711,141.32h0l-.026-.013q-.82-.438-1.618-.927-.989-.6-1.993-1.291l-.007,0-.337-.246h0l-2.54-1.953h0q-1.894-1.528-3.468-3.008l0,0-.137-.132-.107-.1-.2-.2-.092-.091-.29-.287-.288-.29-.091-.092-.2-.2-.1-.107-.185-.192-.1-.106-.2-.212-.08-.084q-.138-.147-.274-.295l-.057-.062-.216-.236-.1-.106-.175-.194c-.035-.038-.07-.077-.1-.116l-.172-.193-.1-.11-.2-.227-.064-.074c-.087-.1-.172-.2-.257-.3a35.065,35.065,0,0,1-2.812-3.65l-.012.015q-.564-.8-1.073-1.6-.569-.894-1.065-1.774a30.4,30.4,0,0,1-1.386-2.762q-.111-.253-.214-.5a20.065,20.065,0,0,1-.729-2.076c-.787-2.747-.637-4.844.424-5.9,1.084-1.084,3.005-1.016,4.426-.769a23.968,23.968,0,0,1,7.967,3.343,1.551,1.551,0,0,0,1.406.111l.814-.776a1.556,1.556,0,0,0-.6-1.988,27.034,27.034,0,0,0-9.057-3.755c-3.89-.678-6.041.514-7.161,1.634-1.341,1.341-2.642,3.985-1.215,8.962a27.948,27.948,0,0,0,2.457,5.752,56.751,56.751,0,0,0,17.987,18.617,4.309,4.309,0,0,1,.451.295q.375.248.7.483a28.73,28.73,0,0,0,6.331,2.784,14.465,14.465,0,0,0,3.969.621,6.749,6.749,0,0,0,4.993-1.836C724.91,144.014,726.075,141.964,725.53,138.292Z" transform="translate(-0.001 -0.001)"/></g></svg>