<svg xmlns="http://www.w3.org/2000/svg" width="40.728" height="45.69" viewBox="0 0 40.728 45.69"><defs><style>.a{fill:#00cdc4;}.b{fill:#3bf3c3;}</style></defs><g transform="translate(-156.057 -112.742)"><path class="a" d="M483.038,481.5a1.755,1.755,0,0,1-1.758-1.758V467.064a1.758,1.758,0,0,1,3.515,0v12.678a1.755,1.755,0,0,1-1.758,1.758Z" transform="translate(-306.616 -332.393)"/><path class="a" d="M176.421,158.433a4.443,4.443,0,0,1-2.168-.574L158.237,148.6a4.37,4.37,0,0,1-2.179-3.761v-18.5a4.359,4.359,0,0,1,2.168-3.761l16.017-9.256a4.363,4.363,0,0,1,4.347,0l16.017,9.256a4.37,4.37,0,0,1,2.179,3.761v18.5a4.359,4.359,0,0,1-2.168,3.761L178.6,157.847a4.407,4.407,0,0,1-2.179.586Zm0-42.181a.793.793,0,0,0-.422.117l-16.017,9.245a.842.842,0,0,0-.422.726v18.5a.856.856,0,0,0,.422.726L176,154.812a.814.814,0,0,0,.832,0l16.017-9.245a.842.842,0,0,0,.422-.726v-18.5a.855.855,0,0,0-.422-.726l-16.005-9.256A.9.9,0,0,0,176.421,116.252Z"/><path class="b" d="M324.243,374.342a1.8,1.8,0,0,1-.9-.246l-9.631-5.73a1.76,1.76,0,1,1,1.8-3.023l9.631,5.73a1.755,1.755,0,0,1,.609,2.414A1.783,1.783,0,0,1,324.243,374.342Z" transform="translate(-147.822 -237.914)"/><path class="b" d="M483.043,374.409a1.758,1.758,0,0,1-.9-3.269l9.631-5.73a1.76,1.76,0,1,1,1.8,3.023l-9.631,5.73A1.8,1.8,0,0,1,483.043,374.409Z" transform="translate(-306.621 -237.98)"/></g></svg>