<svg xmlns="http://www.w3.org/2000/svg" width="39.345" height="39.349" viewBox="0 0 39.345 39.349"><defs><style>.a{fill:#3bf3c3;}.b{fill:#00cdc4;}</style></defs><g transform="translate(-64 -64)"><path class="a" d="M67.3,402.4h36.538v2.811H67.3Z" transform="translate(-3.155 -323.539)"/><path class="b" d="M78.519,97.64a5.148,5.148,0,0,0,.2,1.405h-10V96.235h10A4.985,4.985,0,0,0,78.519,97.64ZM98.6,96.235v2.811h-10a4.79,4.79,0,0,0,0-2.811ZM99.423,64h-31.5A3.91,3.91,0,0,0,64,67.882V85.22A3.907,3.907,0,0,0,67.926,89.1H82.252v2.938a5.92,5.92,0,0,1,1.405-.171,5.728,5.728,0,0,1,1.405.171V89.1H99.419a3.91,3.91,0,0,0,3.926-3.882V67.882A3.9,3.9,0,0,0,99.423,64Zm1.115,21.225A1.094,1.094,0,0,1,99.423,86.3h-31.5a1.1,1.1,0,0,1-1.115-1.072V67.882a1.094,1.094,0,0,1,1.115-1.072H99.419a1.1,1.1,0,0,1,1.115,1.072V85.225Z" transform="translate(0 0)"/><path class="a" d="M390.845,703.035a5.794,5.794,0,0,0-4.229-4.163,5.92,5.92,0,0,0-1.405-.171,5.731,5.731,0,0,0-1.405.171,5.794,5.794,0,0,0-4.229,4.163,5.709,5.709,0,0,0,0,2.811,5.83,5.83,0,0,0,11.269,0,5.692,5.692,0,0,0,0-2.806Zm-5.634,4.33a3.02,3.02,0,0,1-2.635-1.524,2.877,2.877,0,0,1-.369-1.405,2.831,2.831,0,0,1,.369-1.405,3.04,3.04,0,0,1,5.27,0,2.861,2.861,0,0,1,0,2.811A3.02,3.02,0,0,1,385.21,707.365Z" transform="translate(-301.549 -606.826)"/></g></svg>