<svg xmlns="http://www.w3.org/2000/svg" width="48.316" height="48.69" viewBox="0 0 48.316 48.69"><defs><style>.a{fill:#c5fffc;}.b{fill:#00cdc4;}.c{fill:#4a5454;}</style></defs><g transform="translate(-274.907 -1406)"><ellipse class="a" cx="18.468" cy="17.442" rx="18.468" ry="17.442" transform="translate(286.288 1406)"/><g transform="translate(274.907 1407.681)"><path class="b" d="M302.068,133.24a7.53,7.53,0,0,1,5.1,1.928,6.175,6.175,0,0,1,0,9.306,7.71,7.71,0,0,1-10.2,0,6.175,6.175,0,0,1,0-9.306A7.532,7.532,0,0,1,302.068,133.24Zm0-2.821c-5.58,0-10.1,4.208-10.1,9.4s4.521,9.4,10.1,9.4,10.1-4.208,10.1-9.4S307.648,130.42,302.068,130.42Zm.962-7.521h-2.886a1.411,1.411,0,1,0,0,2.821h2.886a1.411,1.411,0,1,0,0-2.82Z" transform="translate(-281.384 -117.257)"/><path class="c" d="M102.8,19.852C102.8,8.967,93.654.131,82.332.021c-11.463-.11-20.794,8.663-20.9,19.649A19.877,19.877,0,0,0,74.791,38.4a2.935,2.935,0,0,1,1.963,2.741v2.58a.376.376,0,0,1-.384.368H72.924a3.006,3.006,0,0,0-3.065,2.938H94.373a3.005,3.005,0,0,0-3.064-2.938H87.862a.376.376,0,0,1-.383-.367V41.143A2.946,2.946,0,0,1,89.456,38.4,19.887,19.887,0,0,0,102.8,19.853ZM84.12,44.208H80.111a.392.392,0,0,1-.4-.381v-4.32a22.516,22.516,0,0,0,4.81,0v4.32a.392.392,0,0,1-.4.381Zm-2-7.521a18.423,18.423,0,0,1-6.925-1.329,17.81,17.81,0,0,1-5.659-3.628,16.84,16.84,0,0,1-3.816-5.381,16.217,16.217,0,0,1,0-13.17A16.84,16.84,0,0,1,69.532,7.8,17.81,17.81,0,0,1,75.19,4.169a18.709,18.709,0,0,1,13.851,0A17.809,17.809,0,0,1,94.7,7.8a16.84,16.84,0,0,1,3.816,5.381,16.217,16.217,0,0,1,0,13.17A16.84,16.84,0,0,1,94.7,31.729a17.81,17.81,0,0,1-5.658,3.629A18.462,18.462,0,0,1,82.115,36.687Z" transform="translate(-61.431 -0.02)"/></g></g></svg>