<svg xmlns="http://www.w3.org/2000/svg" width="49.539" height="43.764" viewBox="0 0 49.539 43.764"><defs><style>.a{fill:#c5fffc;}.b{fill:#00cdc4;}.c{fill:#4a5454;}</style></defs><g transform="translate(-392.461 -1411.814)"><rect class="a" width="41" height="24" rx="2" transform="translate(401 1419)"/><g transform="translate(328.461 1347.814)"><path class="b" d="M67.3,402.4h40.638v3.126H67.3Z" transform="translate(-3.139 -321.871)"/><path class="c" d="M80.148,101.414a5.726,5.726,0,0,0,.22,1.563H69.246V99.851H80.367A5.544,5.544,0,0,0,80.148,101.414Zm22.336-1.563v3.126H91.362a5.327,5.327,0,0,0,0-3.126ZM103.4,64H68.367A4.349,4.349,0,0,0,64,68.318V87.6a4.345,4.345,0,0,0,4.367,4.318H84.3v3.268A6.584,6.584,0,0,1,85.862,95a6.371,6.371,0,0,1,1.563.19V91.919h15.967a4.349,4.349,0,0,0,4.367-4.318V68.318A4.341,4.341,0,0,0,103.4,64Zm1.241,23.606A1.217,1.217,0,0,1,103.4,88.8H68.367a1.22,1.22,0,0,1-1.241-1.192V68.318a1.217,1.217,0,0,1,1.241-1.192h35.026a1.22,1.22,0,0,1,1.241,1.192V87.606Z" transform="translate(0 0)"/><path class="b" d="M392.129,703.521a6.444,6.444,0,0,0-4.7-4.63,6.583,6.583,0,0,0-1.563-.19,6.373,6.373,0,0,0-1.563.19,6.444,6.444,0,0,0-4.7,4.63,6.35,6.35,0,0,0,0,3.126,6.484,6.484,0,0,0,12.533,0,6.33,6.33,0,0,0,0-3.121Zm-6.267,4.816a3.359,3.359,0,0,1-2.931-1.695,3.2,3.2,0,0,1-.41-1.563,3.148,3.148,0,0,1,.41-1.563,3.381,3.381,0,0,1,5.861,0,3.182,3.182,0,0,1,0,3.126A3.359,3.359,0,0,1,385.862,708.337Z" transform="translate(-299.995 -603.699)"/></g></g></svg>