<svg xmlns="http://www.w3.org/2000/svg" width="44.711" height="47.5" viewBox="0 0 44.711 47.5"><defs><style>.a{fill:#c5fffc;}.b{fill:#4a5454;}.c{fill:#00cdc4;}</style></defs><g transform="translate(-235.289 -1599)"><path class="a" d="M-10681.425-8134.691c-15.785-8.827-15.718-14.924-15.541-31.223.019-1.917.043-3.984.043-6.229a1.409,1.409,0,0,1,.985-1.35c2.559-.8,5.337-1.546,8.247-2.223a54.961,54.961,0,0,1,9.53-1.283,2.119,2.119,0,0,1,.223.005,91.539,91.539,0,0,1,17.539,3.5,1.4,1.4,0,0,1,1,1.348c.006,2.5.035,4.768.064,6.852.229,16.911.3,22.014-15.426,30.632a6.818,6.818,0,0,1-3.321,1.009A6.661,6.661,0,0,1-10681.425-8134.691Z" transform="translate(10939.289 9776)"/><g transform="translate(-84 10.5)"><path class="b" d="M127.963,86.4a4.287,4.287,0,0,1-1.989.67,4.175,4.175,0,0,1-1.989-.685c-14.324-8.008-14.277-12.4-14.1-28.717.018-1.623.036-3.355.042-5.21q3.5-1.045,7.067-1.868a52.115,52.115,0,0,1,8.934-1.209,89.55,89.55,0,0,1,15.939,3.085c.009,2.1.036,4.033.06,5.827.221,16.405.276,20.3-13.963,28.106m16.756-28.145c-.027-2.083-.059-4.355-.063-6.85a1.409,1.409,0,0,0-1-1.35,91.6,91.6,0,0,0-17.538-3.5,1.5,1.5,0,0,0-.225-.007,55.059,55.059,0,0,0-9.53,1.283c-2.911.677-5.687,1.425-8.247,2.223a1.411,1.411,0,0,0-.985,1.35c0,2.246-.023,4.313-.043,6.229-.177,16.3-.243,22.4,15.542,31.222a6.659,6.659,0,0,0,3.34,1.038,6.811,6.811,0,0,0,3.319-1.01c15.724-8.619,15.656-13.722,15.426-30.633" transform="translate(212.231 1546.105)"/><path class="c" d="M135.766,58.882,123.172,71.676,116.989,65.4a1.85,1.85,0,0,0-2.635,0,1.9,1.9,0,0,0,0,2.666l7.5,7.618a1.846,1.846,0,0,0,2.639,0l13.914-14.134a1.9,1.9,0,0,0-.006-2.664,1.845,1.845,0,0,0-2.633.006" transform="translate(213.231 1547.049)"/></g></g></svg>