<svg xmlns="http://www.w3.org/2000/svg" width="45.853" height="47.737" viewBox="0 0 45.853 47.737"><defs><style>.a{fill:#c5fffc;}.b{fill:#4a5454;}.c{fill:#00cdc4;}</style></defs><g transform="translate(-1009 -1411.814)"><path class="a" d="M-10664.968-8137.77l-11.917-8.6a.224.224,0,0,0-.081-.056,1.81,1.81,0,0,0-2.287,0,.233.233,0,0,1-.069.056l-11.834,8.583a3.583,3.583,0,0,1-3.675.709,3.2,3.2,0,0,1-2.17-2.972v-32.593a4.516,4.516,0,0,1,4.666-4.352h28.524a4.513,4.513,0,0,1,4.663,4.352v32.615a3.2,3.2,0,0,1-2.156,2.972,3.93,3.93,0,0,1-1.262.217A3.563,3.563,0,0,1-10664.968-8137.77Z" transform="translate(11714 9596.395)"/><g transform="translate(917.352 1371.366)"><path class="b" d="M126.084,81.6a3.511,3.511,0,0,1-2.4-.948l-11.918-8.82a.209.209,0,0,0-.082-.056,1.771,1.771,0,0,0-2.286,0,.307.307,0,0,1-.07.056l-11.836,8.8a3.516,3.516,0,0,1-3.673.725,3.269,3.269,0,0,1-2.169-3.044V44.908a4.564,4.564,0,0,1,4.665-4.46h28.524a4.565,4.565,0,0,1,4.665,4.46V78.337a3.274,3.274,0,0,1-2.157,3.044A3.794,3.794,0,0,1,126.084,81.6ZM113.513,69.751,125.477,78.6a.991.991,0,0,1,.163.145.619.619,0,0,0,.688.145.567.567,0,0,0,.4-.558V44.908a1.832,1.832,0,0,0-1.866-1.784H96.324a1.832,1.832,0,0,0-1.866,1.784V78.314a.567.567,0,0,0,.4.558.618.618,0,0,0,.688-.145.991.991,0,0,1,.163-.145l11.871-8.82a4.663,4.663,0,0,1,5.936-.011ZM111.717,71.8ZM111.647,71.747ZM108.475,70.777ZM113.583,69.818Zm-.1-.1Z"/><path class="c" d="M342.988,371.828h-13.2a1.338,1.338,0,0,1,0-2.676h13.2a1.338,1.338,0,0,1,0,2.676Z" transform="translate(-225.644 -314.387)"/><path class="c" d="M480.314,228.614a1.342,1.342,0,0,1-1.338-1.338v-13.2a1.338,1.338,0,0,1,2.676,0v13.2A1.342,1.342,0,0,1,480.314,228.614Z" transform="translate(-369.623 -164.784)"/></g></g></svg>