<svg xmlns="http://www.w3.org/2000/svg" width="22.292" height="25.014" viewBox="0 0 22.292 25.014"><defs><style>.a{fill:#151717;stroke-width:0.4px;}.a,.c{stroke:#151717;}.b{fill:#00cdc4;stroke:#00cdc4;stroke-width:0.3px;}.c{fill:none;stroke-linecap:round;stroke-width:1.6px;}</style></defs><g transform="translate(-800.693 -899.8)"><g transform="translate(1.893 -89)"><g transform="translate(799 989)"><g transform="translate(0 0)"><path class="a" d="M72.456,70.446H51.837a.639.639,0,0,1-.637-.637V51.837a.639.639,0,0,1,.637-.637H72.456a.639.639,0,0,1,.637.637V69.809A.639.639,0,0,1,72.456,70.446ZM52.473,69.173H71.819v-16.7H52.473Z" transform="translate(-51.2 -51.2)"/></g><path class="b" d="M236.342,274.5a.372.372,0,0,1-.144-.029,5.758,5.758,0,0,1-3.517-4.829.372.372,0,0,1,.74-.063,5.017,5.017,0,0,0,3.065,4.207.372.372,0,0,1-.145.714Zm3.981.081a.372.372,0,0,1-.13-.72,5.051,5.051,0,0,0,3.256-4.283.372.372,0,0,1,.74.063,5.8,5.8,0,0,1-3.737,4.916A.368.368,0,0,1,240.324,274.582Zm-6.042-8.521a.372.372,0,0,1-.285-.609,5.776,5.776,0,0,1,8.86-.024.372.372,0,1,1-.569.479,5.033,5.033,0,0,0-7.721.02A.368.368,0,0,1,234.282,266.061Zm-1.021,2.819a1.33,1.33,0,1,1,1.33-1.331A1.332,1.332,0,0,1,233.26,268.88Zm0-1.918a.587.587,0,1,0,.587.587A.588.588,0,0,0,233.26,266.962ZM243.6,268.88a1.33,1.33,0,1,1,1.33-1.331A1.332,1.332,0,0,1,243.6,268.88Zm0-1.918a.587.587,0,1,0,.587.587A.588.588,0,0,0,243.6,266.962Zm-5.168,8.918a1.33,1.33,0,1,1,1.33-1.331A1.332,1.332,0,0,1,238.436,275.88Zm0-1.918a.587.587,0,1,0,.587.587A.588.588,0,0,0,238.436,273.962Z" transform="translate(-227.327 -259.767)"/></g><path class="c" d="M3922.805,14727s8.019,5.356,16.517,0" transform="translate(-3121.117 -13716.381)"/></g></g></svg>