<svg xmlns="http://www.w3.org/2000/svg" width="30.014" height="23.67" viewBox="0 0 30.014 23.67"><defs><style>.a{fill:#00cdc4;}.b{fill:#151717;stroke:#fff;stroke-width:0.2px;}</style></defs><g transform="translate(-797.294 -1139.094)"><path class="a" d="M78.457,153.232h.019a.915.915,0,0,0,.667-.277l1.186-1.133a.971.971,0,1,0-1.355-1.393l-1.188,1.133a.974.974,0,0,0,.671,1.669Zm-5.974-2.208a.946.946,0,0,0,.963-.965v-1.652a.964.964,0,1,0-1.929,0v1.65a.961.961,0,0,0,.966.966Zm-7.737,5.658-1.633-.055a.974.974,0,0,0-.743,1.631.963.963,0,0,0,.688.3l1.688.055a.955.955,0,0,0,.964-.947A.989.989,0,0,0,64.746,156.683Zm2.689-4.436a.968.968,0,0,0-.3-.684l-1.188-1.133a.971.971,0,1,0-1.355,1.393l1.188,1.133a.974.974,0,0,0,1.65-.709Zm0,0" transform="translate(735.18 991.65)"/><path class="b" d="M85.75,157.677a8.635,8.635,0,0,0-9.63-3.991,5.476,5.476,0,1,0-8.015,7.441,5.366,5.366,0,0,0,2.412,9.408v.093H85.155a6.489,6.489,0,0,0,.595-12.951Zm-14.158,4.042.093-.667a6.7,6.7,0,0,1,6.622-5.734,6.761,6.761,0,0,1,5.251,2.524,6.6,6.6,0,0,0-3.636,2.429.972.972,0,0,0-.184.709.947.947,0,0,0,1.707.426,4.544,4.544,0,0,1,3.672-1.855,4.584,4.584,0,1,1,0,9.167H71.5a3.45,3.45,0,0,1-.576-6.846l.669-.15v0Zm-3.21-4.487a3.6,3.6,0,0,1,3.583-3.581,3.559,3.559,0,0,1,2.243.8,8.571,8.571,0,0,0-4.305,5.677c-.019,0-.019,0-.038.019a3.581,3.581,0,0,1-1.484-2.912Z" transform="translate(735.558 992.036)"/></g></svg>