<svg xmlns="http://www.w3.org/2000/svg" width="24.107" height="24.1" viewBox="0 0 24.107 24.1"><defs><style>.a{fill:#9f4444;opacity:0;}.b{fill:#151717;}.b,.c{stroke:#fff;stroke-width:0.2px;}.c{fill:#00cdc4;}</style></defs><g transform="translate(-399 -1102)"><rect class="a" width="24" height="24" transform="translate(399 1102)"/><g transform="translate(284.997 993.723)"><path class="b" d="M136.734,121.383a.26.26,0,0,1,.033-.483,1.75,1.75,0,0,0-.411-3.42.246.246,0,0,1-.233-.182.243.243,0,0,1,.086-.28,1.748,1.748,0,0,0-1.616-3.038.241.241,0,0,1-.28-.086.246.246,0,0,1-.021-.292,1.75,1.75,0,0,0-2.606-2.251.239.239,0,0,1-.292.021.248.248,0,0,1-.125-.265,1.75,1.75,0,0,0-3.244-1.16.259.259,0,0,1-.477-.078,1.748,1.748,0,0,0-3.441.092.251.251,0,0,1-.2.215.243.243,0,0,1-.271-.113,1.749,1.749,0,0,0-3.175,1.33.243.243,0,0,1-.11.271.251.251,0,0,1-.3-.006,1.749,1.749,0,0,0-2.483,2.385.247.247,0,0,1-.006.3.244.244,0,0,1-.277.1,1.749,1.749,0,0,0-1.452,3.121.24.24,0,0,1,.1.274.249.249,0,0,1-.221.194,1.749,1.749,0,0,0-.227,3.435.259.259,0,0,1,.057.48,1.749,1.749,0,0,0,1.029,3.285.242.242,0,0,1,.259.134.249.249,0,0,1-.033.292,1.755,1.755,0,0,0,1.306,2.907,1.789,1.789,0,0,0,.841-.215.26.26,0,0,1,.367.316,1.75,1.75,0,0,0,2.975,1.735.24.24,0,0,1,.283-.075.248.248,0,0,1,.173.239,1.724,1.724,0,0,0,1.473,1.69,1.925,1.925,0,0,0,.289.024,1.72,1.72,0,0,0,1.637-1.172.26.26,0,0,1,.486-.012,1.749,1.749,0,0,0,3.366-.721.248.248,0,0,1,.158-.247.245.245,0,0,1,.286.06,1.749,1.749,0,0,0,2.877-1.89.251.251,0,0,1,.06-.289.248.248,0,0,1,.289-.048,1.75,1.75,0,0,0,2-2.8.249.249,0,0,1-.051-.289.245.245,0,0,1,.253-.149,1.751,1.751,0,0,0,.865-3.333Zm-.405-1.908a1.749,1.749,0,0,0-.215,3.262.258.258,0,0,1-.125.492,1.75,1.75,0,0,0-1.377,2.966.26.26,0,0,1-.3.414,1.75,1.75,0,0,0-2.355,2.269.259.259,0,0,1-.426.28l-.54.513.54-.513a1.75,1.75,0,0,0-3.017,1.264.259.259,0,0,1-.5.107,1.748,1.748,0,0,0-3.268.089.259.259,0,0,1-.5-.08,1.739,1.739,0,0,0-1.16-1.613,1.8,1.8,0,0,0-.593-.1,1.741,1.741,0,0,0-1.324.614.259.259,0,0,1-.441-.256,1.749,1.749,0,0,0-2.475-2.138.235.235,0,0,1-.325-.066.232.232,0,0,1,.009-.331,1.752,1.752,0,0,0-1.541-2.889.258.258,0,0,1-.152-.486,1.749,1.749,0,0,0-.391-3.247.26.26,0,0,1,.033-.51,1.751,1.751,0,0,0,.811-3.169.237.237,0,0,1-.086-.322.231.231,0,0,1,.3-.14,1.75,1.75,0,0,0,1.9-2.662.259.259,0,0,1,.367-.355,1.75,1.75,0,0,0,2.734-1.795.237.237,0,0,1,.152-.3.231.231,0,0,1,.316.1,1.75,1.75,0,0,0,3.2-.686.257.257,0,0,1,.507-.015,1.735,1.735,0,0,0,1.437,1.371,1.816,1.816,0,0,0,.283.024,1.734,1.734,0,0,0,1.512-.88.23.23,0,0,1,.31-.113.233.233,0,0,1,.167.286,1.749,1.749,0,0,0,2.823,1.649.232.232,0,0,1,.331.006.237.237,0,0,1,.054.328,1.75,1.75,0,0,0,2.039,2.558.259.259,0,0,1,.239.45,1.748,1.748,0,0,0,.978,3.119.236.236,0,0,1,.241.227A.226.226,0,0,1,136.329,119.475Z" transform="translate(0 0)"/><path class="c" d="M351.158,283.257a8.711,8.711,0,0,0-2.412-2.451c-1.383-.874-2.254-.555-2.647-.286s-1.011.957-.71,2.567a9.536,9.536,0,0,0,3.8,5.6,3.162,3.162,0,0,0,1.679.572,1.707,1.707,0,0,0,.969-.283c.394-.268,1.011-.957.71-2.567A8.615,8.615,0,0,0,351.158,283.257ZM351,287.735c-.1.066-.456.039-1.017-.316a8.078,8.078,0,0,1-3.127-4.612c-.122-.65-.015-1,.083-1.058a.239.239,0,0,1,.131-.027,1.853,1.853,0,0,1,.885.343,8.078,8.078,0,0,1,3.127,4.612C351.2,287.326,351.092,287.672,351,287.735Zm-7.26.486a2.337,2.337,0,1,0,2.337,2.337A2.341,2.341,0,0,0,343.737,288.221Zm0,3.187a.847.847,0,1,1,.847-.847A.846.846,0,0,1,343.737,291.408Z" transform="translate(-220.461 -166.638)"/></g></g></svg>