<svg xmlns="http://www.w3.org/2000/svg" width="19.901" height="24.049" viewBox="0 0 19.901 24.049"><defs><style>.a{fill:#151717;}.b{fill:#00cdc4;}</style></defs><g transform="translate(-159.998 -74.667)"><path class="a" d="M174.248,93.073a9.668,9.668,0,0,0,5.651-8.728,9.954,9.954,0,0,0-19.9,0,9.668,9.668,0,0,0,5.651,8.728,12.353,12.353,0,0,0-5.482,4.253.861.861,0,0,0,.211,1.226.917.917,0,0,0,1.26-.205,10.149,10.149,0,0,1,16.62,0,.918.918,0,0,0,1.26.205.861.861,0,0,0,.211-1.226,12.353,12.353,0,0,0-5.482-4.253Zm-12.441-8.728a8.144,8.144,0,1,1,8.141,7.919A8.044,8.044,0,0,1,161.807,84.345Z"/><path class="b" d="M336.1,254.936c-3,0-5.432-2.154-5.432-4.8s2.437-4.8,5.432-4.8,5.432,2.154,5.432,4.8S339.094,254.936,336.1,254.936Zm0-7.908a3.13,3.13,0,1,0,3.515,3.107A3.334,3.334,0,0,0,336.1,247.029Z" transform="translate(-166.15 -165.852)"/><path class="a" d="M480.847,160.847m-.847,0a.847.847,0,1,0,.847-.847A.847.847,0,0,0,480,160.847Z" transform="translate(-310.899 -83.074)"/></g></svg>