<svg xmlns="http://www.w3.org/2000/svg" width="25.013" height="22.74" viewBox="0 0 25.013 22.74"><defs><style>.a{fill:#151717;stroke:#151717;}.a,.b{stroke-width:0.1px;}.b{fill:#00cdc4;stroke:#00cdc4;}</style></defs><g transform="translate(-1199.751 -1330.696)"><path class="a" d="M223.961,269.942c-1.354,1.083-3.946,1.78-6.654,1.78-2.824,0-5.493-.735-6.809-1.9a.822.822,0,0,0-1.083,1.238c1.625,1.431,4.6,2.321,7.892,2.321,3.134,0,6.035-.812,7.7-2.128a.809.809,0,0,0,.116-1.161.844.844,0,0,0-1.161-.155Zm-2.9,4.952a5.344,5.344,0,0,1-3.791,1.315,5.134,5.134,0,0,1-3.869-1.431.822.822,0,0,0-1.238,1.083,6.8,6.8,0,0,0,5.106,2.012,7,7,0,0,0,4.99-1.857.807.807,0,0,0-.039-1.161A.882.882,0,0,0,221.059,274.894Zm5.377-9.981a19.053,19.053,0,0,1-18.3-.039.816.816,0,1,0-.851,1.393,19.188,19.188,0,0,0,10.02,2.592,19.4,19.4,0,0,0,9.981-2.553.816.816,0,1,0-.851-1.393Z" transform="translate(994.951 1075.513)"/><path class="b" d="M217.257,256c-6,0-12.457,1.277-12.457,4.1s6.46,4.1,12.457,4.1,12.457-1.277,12.457-4.1S223.253,256,217.257,256Zm0,6.538c-7.157,0-10.832-1.7-10.832-2.437s3.675-2.437,10.832-2.437,10.832,1.7,10.832,2.437S224.413,262.538,217.257,262.538Z" transform="translate(995.001 1074.746)"/></g></svg>