<svg xmlns="http://www.w3.org/2000/svg" width="24.591" height="25.1" viewBox="0 0 24.591 25.1"><defs><style>.a{fill:#9f4444;opacity:0;}.b{fill:#00cdc4;stroke:#00cdc4;}.b,.c{stroke-width:0.2px;}.c{fill:#151717;stroke:#151717;}</style></defs><g transform="translate(-1199 -898.9)"><rect class="a" width="24" height="24" transform="translate(1199 900)"/><g transform="translate(1199.124 899)"><path class="b" d="M262.277,2.108a4.781,4.781,0,0,1,3.312,1.3A4.414,4.414,0,0,1,266.7,5.077h-8.838a4.37,4.37,0,0,1,1.107-1.664A4.775,4.775,0,0,1,262.277,2.108Zm0-1.484a6.1,6.1,0,0,0-6.246,5.938h12.492A6.1,6.1,0,0,0,262.277.624Zm0,0" transform="translate(-250.093 -0.624)"/><path class="c" d="M20.3,204.148v-2.273H24.1a.742.742,0,1,0,0-1.484H20.3v-4.036a4.563,4.563,0,0,0,4.361-3.12.745.745,0,0,0-.729-.963.778.778,0,0,0-.449.142.739.739,0,0,0-.277.374,2.984,2.984,0,0,1-.741,1.2,3.125,3.125,0,0,1-2.2.884H5.1a3.113,3.113,0,0,1-2.2-.884,2.914,2.914,0,0,1-.741-1.2.759.759,0,0,0-.726-.516.751.751,0,0,0-.761.739.729.729,0,0,0,.036.223,4.56,4.56,0,0,0,4.361,3.12v4.036H1.26a.75.75,0,0,0-.761.742.741.741,0,0,0,.223.525.77.77,0,0,0,.538.217H5.068v2.273a4.563,4.563,0,0,0-4.361,3.12.745.745,0,0,0,.729.963.76.76,0,0,0,.449-.145.739.739,0,0,0,.277-.374,2.984,2.984,0,0,1,.741-1.2,3.125,3.125,0,0,1,2.2-.884h.122a7.565,7.565,0,0,0,7.46,5.941,7.679,7.679,0,0,0,5.384-2.174,7.341,7.341,0,0,0,2.076-3.763h.122a3.112,3.112,0,0,1,2.2.884,2.914,2.914,0,0,1,.741,1.2.765.765,0,0,0,1.487-.223.743.743,0,0,0-.036-.223,4.557,4.557,0,0,0-4.358-3.12Zm-1.523,0a5.909,5.909,0,0,1-.19,1.484,5.565,5.565,0,0,1-.289.826,5.9,5.9,0,0,1-1.306,1.887,6.074,6.074,0,0,1-1.936,1.273.032.032,0,0,1-.018.006,1.15,1.15,0,0,1-1.594-1.038v-9.634a.741.741,0,0,0-.223-.525.765.765,0,0,0-1.3.539v9.62a1.148,1.148,0,0,1-1.594,1.038.032.032,0,0,0-.018-.006,6.056,6.056,0,0,1-1.93-1.27,5.9,5.9,0,0,1-1.306-1.887,6.339,6.339,0,0,1-.289-.826,5.909,5.909,0,0,1-.19-1.484v-7.8H18.774v7.793Zm0,0" transform="translate(-0.499 -186.82)"/></g></g></svg>