<svg xmlns="http://www.w3.org/2000/svg" width="25.463" height="24.201" viewBox="0 0 25.463 24.201"><defs><style>.a{fill:#151717;stroke-width:0.2px;}.a,.b{stroke:#fff;}.b{fill:#00cdc4;stroke-width:0.3px;}</style></defs><g transform="translate(-402.049 -1307.461)"><path class="a" d="M0,24V5.15A5.011,5.011,0,0,1,3.961.269,4.609,4.609,0,0,1,5.024.145,4.51,4.51,0,0,1,6.295.324,5.019,5.019,0,0,1,8.577,1.641a7.261,7.261,0,0,1,9.243.039l.012-.007L19.1,2.85,9.2,13.467l-.974-.9A7.226,7.226,0,0,1,7.21,3.125,2.85,2.85,0,0,0,5.02,2,3.105,3.105,0,0,0,2.045,5.275V24ZM9.268,3.679a5.1,5.1,0,0,0-.037,6.936l6.964-7.457a5.1,5.1,0,0,0-6.927.521Z" transform="translate(402.149 1307.561)"/><path class="b" d="M4.671,13.344l-.8-.8a1.173,1.173,0,0,1,0-1.657,1.2,1.2,0,0,1,1.657,0l.8.8a1.169,1.169,0,0,1-1.653,1.654ZM1.147,9.819l-.8-.8a1.173,1.173,0,0,1,0-1.657A1.2,1.2,0,0,1,2,7.362l.8.8A1.169,1.169,0,0,1,1.147,9.819Zm7.861.219a1.156,1.156,0,0,1-.825-.345l-.8-.8a1.172,1.172,0,0,1,0-1.653,1.2,1.2,0,0,1,1.657,0l.8.8a1.181,1.181,0,0,1,0,1.657,1.176,1.176,0,0,1-.82.34Zm2.562-3.73-.8-.8a1.177,1.177,0,0,1,0-1.654,1.2,1.2,0,0,1,1.657,0l.8.8a1.168,1.168,0,1,1-1.653,1.65Zm-6.087.206a1.155,1.155,0,0,1-.824-.344l-.8-.8a1.172,1.172,0,0,1,0-1.653,1.2,1.2,0,0,1,1.657,0l.8.8a1.181,1.181,0,0,1,0,1.657,1.178,1.178,0,0,1-.816.34Zm2.563-3.73-.8-.8a1.174,1.174,0,0,1,0-1.652A1.194,1.194,0,0,1,8.9.334l.8.8A1.167,1.167,0,1,1,8.046,2.783Z" transform="translate(413.784 1312.349)"/></g></svg>