<svg xmlns="http://www.w3.org/2000/svg" width="24" height="24.2" viewBox="0 0 24 24.2"><defs><style>.a{fill:#9f4444;opacity:0;}.b{fill:#151717;stroke:#151717;}.b,.c{stroke-width:0.2px;}.c{fill:#00cdc4;stroke:#00cdc4;}</style></defs><g transform="translate(-399 -925.9)"><rect class="a" width="24" height="24" transform="translate(399 926)"/><g transform="translate(-0.943 -1.74)"><path class="b" d="M73.456,70.273H51.867a.669.669,0,0,1-.667-.667V51.867a.669.669,0,0,1,.667-.667H73.456a.669.669,0,0,1,.667.667v17.74A.669.669,0,0,1,73.456,70.273ZM52.533,68.94H72.789V52.533H52.533Zm18.389,5.593a.669.669,0,0,0-.667-.667H54.482a.667.667,0,1,0,0,1.333H70.256A.669.669,0,0,0,70.922,74.534Z" transform="translate(349.541 876.54)"/><path class="c" d="M57.614,66.448a8.272,8.272,0,0,1,1.753-4.107,7.725,7.725,0,0,1,5.073-2.68.667.667,0,1,0-.187-1.32,8.992,8.992,0,0,0-5.913,3.153,9.575,9.575,0,0,0-2.053,4.847.665.665,0,0,0,.613.713h.053A.655.655,0,0,0,57.614,66.448Zm4.127-2.18a4.975,4.975,0,0,1-2.853-.867,3.974,3.974,0,0,1-1.62-3.413,3.707,3.707,0,0,1,1.367-2.993c2.887-2.387,9.493-1.167,9.773-1.113a.664.664,0,0,1,.527.813c-1.02,4.073-4.04,6.767-5.853,7.367A3.984,3.984,0,0,1,61.74,64.268Zm2.627-7.407c-1.84,0-3.807.267-4.893,1.167a2.4,2.4,0,0,0-.88,1.967,2.689,2.689,0,0,0,1.067,2.327,3.681,3.681,0,0,0,2.987.487c1.2-.4,3.713-2.46,4.78-5.727a22.621,22.621,0,0,0-3.06-.22Z" transform="translate(349.584 875.923)"/></g></g></svg>