<svg xmlns="http://www.w3.org/2000/svg" width="20.113" height="18.677" viewBox="0 0 20.113 18.677"><defs><style>.a{fill:#00cdc4;}.b{fill:#151717;}</style></defs><g transform="translate(-398.32 -1702.33)"><path class="a" d="M83.4,107.21H64.718a.718.718,0,1,1,0-1.437H83.4a.718.718,0,0,1,0,1.437Z" transform="translate(334.32 1605.177)"/><path class="b" d="M81.336,114.677h-4.31a.718.718,0,0,1,0-1.437h4.31a.719.719,0,0,0,.718-.718V108.93a.718.718,0,1,1,1.437,0v3.592A2.158,2.158,0,0,1,81.336,114.677Zm-10.775,0H66.969a2.158,2.158,0,0,1-2.155-2.155V108.93a.718.718,0,1,1,1.437,0v3.592a.719.719,0,0,0,.718.718h3.592a.718.718,0,0,1,0,1.437Zm-5.028-12.212a.719.719,0,0,1-.718-.718V98.155A2.158,2.158,0,0,1,66.969,96h3.592a.718.718,0,0,1,0,1.437H66.969a.72.72,0,0,0-.718.718v3.592A.719.719,0,0,1,65.533,102.465Zm17.24,0a.718.718,0,0,1-.718-.718V98.155a.719.719,0,0,0-.718-.718h-4.31a.718.718,0,1,1,0-1.437h4.31a2.158,2.158,0,0,1,2.155,2.155v3.592A.718.718,0,0,1,82.773,102.465Z" transform="translate(334.224 1606.33)"/></g></svg>