<svg xmlns="http://www.w3.org/2000/svg" width="23.249" height="24.9" viewBox="0 0 23.249 24.9"><defs><style>.a{fill:#9f4444;opacity:0;}.b{fill:#151717;stroke-width:0.2px;}.b,.d{stroke:#151717;}.c{fill:#00cdc4;font-size:7px;font-family:PingFangSC-Semibold, PingFang SC;font-weight:600;}.d{fill:none;stroke-linecap:round;stroke-width:1.8px;}</style></defs><g transform="translate(-802 -1701)"><g transform="translate(802 1701)"><g transform="translate(0 0)"><rect class="a" width="23" height="23"/><g transform="translate(0.941 2.114)"><path class="b" d="M72.762,69.561H51.846a.646.646,0,0,1-.646-.642V51.842a.646.646,0,0,1,.646-.642H72.762a.646.646,0,0,1,.646.642V68.92A.646.646,0,0,1,72.762,69.561Zm-20.27-1.284H72.116V52.484H52.492Z" transform="translate(-51.2 -51.2)"/></g></g><text class="c" transform="translate(4.706 13.676)"><tspan x="0" y="0">LED</tspan></text></g><line class="d" x2="16.941" transform="translate(805.294 1725)"/></g></svg>