<svg xmlns="http://www.w3.org/2000/svg" width="27.65" height="24.307" viewBox="0 0 27.65 24.307"><defs><style>.a{fill:#151717;}.b,.c,.e{fill:none;}.b,.c{stroke:#00cdc4;}.b{stroke-linecap:round;stroke-width:1.8px;}.d{stroke:none;}</style></defs><g transform="translate(-802 -1553.445)"><path class="a" d="M21.658,48.1V39.349a7.961,7.961,0,0,0-7.834-7.876A7.961,7.961,0,0,0,5.99,39.349V48.1H3.012a.876.876,0,1,0,0,1.75l21.624.023a.929.929,0,0,0,.922-.9.862.862,0,0,0-.922-.875H21.658Zm-13.824,0V39.787a5.955,5.955,0,0,1,1.69-4.277,6.269,6.269,0,0,1,4.3-2.287c1.613,0,3.149,1.126,4.3,2.287a5.954,5.954,0,0,1,1.69,4.276V48.1H7.834ZM4.6,40.662H1.152a1.1,1.1,0,1,1,0-2.188H4.61L4.6,40.662Zm18.457,0H26.5a1.1,1.1,0,1,0,0-2.188H23.04ZM5.875,34,3.439,31.691a1.129,1.129,0,0,1,0-1.543,1.3,1.3,0,0,1,1.634,0l2.445,2.322L5.875,34Zm6.8-4.074V26.66a1.2,1.2,0,0,1,1.146-1.094,1.216,1.216,0,0,1,1.158,1.094v3.283l-2.3-.012ZM22.235,34l2.436-2.313a1.128,1.128,0,0,0,0-1.543,1.3,1.3,0,0,0-1.634,0L20.6,32.466,22.235,34Z" transform="translate(802 1527.879)"/><path class="b" d="M3935.285,15296.183v5.139" transform="translate(-3119.46 -13731.165)"/><g class="c" transform="translate(814.747 1572.364)"><circle class="d" cx="1.078" cy="1.078" r="1.078"/><circle class="e" cx="1.078" cy="1.078" r="0.578"/></g></g></svg>