<svg xmlns="http://www.w3.org/2000/svg" width="22.625" height="21.064" viewBox="0 0 22.625 21.064"><defs><style>.a{fill:#00cdc4;stroke-width:0.1px;}.a,.b{stroke:#fff;}.b{fill:#151717;stroke-width:0.5px;}</style></defs><g transform="translate(-1201.886 -1135.167)"><path class="a" d="M193.132,235.669a.94.94,0,0,1-.425-.09,1.1,1.1,0,0,1,0-2.059,1.03,1.03,0,0,1,.851,0,1.312,1.312,0,0,1,.369.235,1.119,1.119,0,0,1,0,1.589,1.309,1.309,0,0,1-.369.235A.94.94,0,0,1,193.132,235.669Zm1.119-4.477h-1.119a1.119,1.119,0,1,1,0-2.238h1.119a1.119,1.119,0,0,1,0,2.238Zm1.119-4.477h-2.238a1.119,1.119,0,1,1,0-2.238h2.238a1.119,1.119,0,0,1,0,2.238Zm-2.238,13.431a1.113,1.113,0,1,1,.795-.325,1.309,1.309,0,0,1-.369.235A1.12,1.12,0,0,1,193.132,240.146Zm1.119,4.477h-1.119a1.119,1.119,0,1,1,0-2.238h1.119a1.119,1.119,0,0,1,0,2.238Zm19.027-8.954h-.224l-.2-.067a.851.851,0,0,1-.2-.1l-.168-.134a1.119,1.119,0,1,1,1.589,0l-.168.134a.851.851,0,0,1-.2.1.694.694,0,0,1-.213.067Zm0-4.477h-1.119a1.119,1.119,0,1,1,0-2.238h1.119a1.119,1.119,0,0,1,0,2.238Zm0-4.477H211.04a1.119,1.119,0,1,1,0-2.238h2.238a1.119,1.119,0,0,1,0,2.238Zm0,13.431a1.175,1.175,0,0,1-.795-.325,1.286,1.286,0,0,1-.235-.369.929.929,0,0,1-.09-.425,1.119,1.119,0,1,1,2.149.425,2.149,2.149,0,0,1-1.03.694Zm0,4.477h-1.119a1.119,1.119,0,1,1,0-2.238h1.119a1.119,1.119,0,0,1,0,2.238ZM203.205,240.6a1.119,1.119,0,0,1,0-2.238,1.119,1.119,0,0,0,1.119-1.119,1.119,1.119,0,0,1,2.238,0A3.358,3.358,0,0,1,203.205,240.6Z" transform="translate(1009.994 910.94)"/><path class="b" d="M203.313,226.921c1.119,1.433,2.608,3.291,3.817,4.846l.078.112c2.63,3.358,1.925,6.928.157,8.764a5.529,5.529,0,0,1-8.025,0c-2.518-2.619-1.735-6.29.168-8.775l.828-1.119c.985-1.287,2.059-2.709,2.977-3.861Zm0-2.91a1.119,1.119,0,0,0-.873.414c-1.31,1.556-3.246,4.13-4.7,6.044-2.843,3.727-3.089,8.473,0,11.685a7.767,7.767,0,0,0,11.248,0c3.089-3.212,2.753-8.137,0-11.685-1.533-1.97-3.5-4.477-4.8-6.055a1.119,1.119,0,0,0-.873-.414Z" transform="translate(1009.848 911.417)"/></g></svg>