<svg xmlns="http://www.w3.org/2000/svg" width="24.421" height="23.689" viewBox="0 0 24.421 23.689"><defs><style>.a,.b{fill:#151717;}.a,.b,.c{stroke:#fff;}.a,.c{stroke-width:0.2px;}.b{stroke-width:0.3px;}.c{fill:#00cdc4;}</style></defs><g transform="translate(-216.028 -238.783)"><path class="a" d="M515.893,665.778a1.052,1.052,0,0,1-1.049-1.049v-5.191a1.049,1.049,0,0,1,2.1,0v5.191A1.052,1.052,0,0,1,515.893,665.778Z" transform="translate(-287.655 -404.087)"/><path class="b" d="M236.786,256.5H219.691a3.513,3.513,0,0,1-3.513-3.513v-10.54a3.513,3.513,0,0,1,3.513-3.513h17.094a3.513,3.513,0,0,1,3.513,3.513v10.54A3.513,3.513,0,0,1,236.786,256.5Zm-17.094-15.469a1.41,1.41,0,0,0-1.416,1.416v10.54a1.41,1.41,0,0,0,1.416,1.416h17.094a1.41,1.41,0,0,0,1.416-1.416v-10.54a1.41,1.41,0,0,0-1.416-1.416Z"/><path class="a" d="M340.685,819.876H326.737a1.049,1.049,0,0,1,0-2.1h13.948a1.049,1.049,0,1,1,0,2.1Z" transform="translate(-105.473 -557.504)"/><path class="c" d="M361.015,380.409h-2.989a1.049,1.049,0,0,1,0-2.1h2.989a1.049,1.049,0,1,1,0,2.1Zm8.7,5.191H358.026a1.049,1.049,0,0,1,0-2.1h11.746a1.052,1.052,0,0,1,1.049,1.049A1.1,1.1,0,0,1,369.72,385.6Z" transform="translate(-135.608 -134.239)"/></g></svg>