<svg xmlns="http://www.w3.org/2000/svg" width="26.007" height="23.295" viewBox="0 0 26.007 23.295"><defs><style>.a{fill:#151717;stroke:#151717;}.a,.b{stroke-width:0.3px;}.b{fill:#00cdc4;stroke:#00cdc4;}</style></defs><g transform="translate(-798.022 -1303.85)"><path class="a" d="M10.738,15.062h0c-.4-.024-.8-.038-1.194-.042a17.214,17.214,0,0,1,.145-3.312A3.17,3.17,0,0,0,8.012,8.9a4.479,4.479,0,0,1-2.4.8,2.7,2.7,0,0,1-.863-.141A2.657,2.657,0,0,1,3.145,7.79,4.483,4.483,0,0,0,.426,5.344.609.609,0,0,1,0,4.83a.612.612,0,0,1,.4-.594,10.353,10.353,0,0,1,3.439-.694,4.481,4.481,0,0,1,2.689.784,4.822,4.822,0,0,1,1.8,3.363,4.7,4.7,0,0,1,.761.438,4,4,0,0,1,1.119,1.288A21.918,21.918,0,0,1,12.674,5,5.5,5.5,0,0,1,14.94.657,4.787,4.787,0,0,1,17.483,0a12.707,12.707,0,0,1,5.622,1.686l-.051-.028a.607.607,0,0,1,0,1.111A14.889,14.889,0,0,0,18.483,5.91a2.969,2.969,0,0,1-1.892.953h-.374A4.469,4.469,0,0,1,14.8,6.608,6.351,6.351,0,0,1,13.514,6,18.159,18.159,0,0,0,11.4,9.867a13.232,13.232,0,0,0-.664,5.194ZM3.61,4.73a4.3,4.3,0,0,0-1.344.216A4.855,4.855,0,0,1,4.3,7.456a1.479,1.479,0,0,0,.851.953,2.412,2.412,0,0,0,.45.041,2.483,2.483,0,0,0,1.532-.529A3.7,3.7,0,0,0,5.821,5.344,4.28,4.28,0,0,0,3.61,4.73ZM17.491,1.252a4.092,4.092,0,0,0-1.932.485A4.117,4.117,0,0,0,13.9,4.87a5.983,5.983,0,0,0,1.285.642,2.057,2.057,0,0,0,.892.2,2.107,2.107,0,0,0,1.492-.625l-.039-.052a14.406,14.406,0,0,1,3.878-2.759,11.5,11.5,0,0,0-3.373-.99A4.22,4.22,0,0,0,17.491,1.252Z" transform="translate(800.462 1304)"/><path class="b" d="M11.836,56.695H11A27.807,27.807,0,0,0,3.864,57.8C1.288,58.55,0,59.67,0,60.945s1.288,2.344,3.864,3.13a30.125,30.125,0,0,0,8.475,1.082,30.292,30.292,0,0,0,8.488-1.082c2.576-.786,3.864-1.868,3.864-3.13S23.4,58.588,20.826,57.8a28,28,0,0,0-7.2-1.043h-.683c-.483.034.829.792.683.356C13.56,56.37,11.8,56.847,11.836,56.695Zm7.483,1.971a9.93,9.93,0,0,1,1.146.3A8.114,8.114,0,0,1,22.8,60.018c.309.232.683.567.683.914s-.374.7-.683.914a7.728,7.728,0,0,1-2.331,1.069,29.159,29.159,0,0,1-8.127,1.03,28.682,28.682,0,0,1-8.127-1.03A8.268,8.268,0,0,1,1.88,61.847c-.309-.219-.67-.554-.67-.914s.361-.683.67-.914a8.281,8.281,0,0,1,2.331-1.056c.361-.116.76-.219,1.159-.309a1.468,1.468,0,0,0-.322.914c0,.618.412,1.507,2.37,2.164a16.318,16.318,0,0,0,4.92.683,16.2,16.2,0,0,0,4.92-.683c1.971-.657,2.383-1.533,2.383-2.164A1.481,1.481,0,0,0,19.319,58.665ZM13.1,58a14.167,14.167,0,0,1,3.774.554c1.133.386,1.546.811,1.546,1.017s-.412.631-1.546,1a14.914,14.914,0,0,1-4.534.631A14.914,14.914,0,0,1,7.8,60.572c-1.133-.374-1.546-.811-1.546-1s.412-.631,1.546-1.017a13.858,13.858,0,0,1,3.864-.605h.18A6.637,6.637,0,0,1,13.1,58Z" transform="translate(798.172 1261.835)"/></g></svg>